<?xml version="1.0" encoding="UTF-8"?>
<svg width="75px" height="75px" viewBox="0 0 75 75" version="1.1" xmlns="http://www.w3.org/2000/svg" xmlns:xlink="http://www.w3.org/1999/xlink">
    <!-- Generator: Sketch 46.2 (44496) - http://www.bohemiancoding.com/sketch -->
    <title>button-round-next-hover</title>
    <desc>Created with Sketch.</desc>
    <defs>
        <rect id="path-1" x="7" y="7" width="61" height="61" rx="30.5"></rect>
    </defs>
    <g id="Home" stroke="none" stroke-width="1" fill="none" fill-rule="evenodd">
        <g id="portal-mario-about-about-desktop" transform="translate(-1245.000000, -1906.000000)">
            <g id="power-ups-section" transform="translate(-579.000000, 1513.000000)">
                <g id="button-round-next-hover" transform="translate(1824.000000, 393.000000)">
                    <path d="M37.5,0 C58.2106781,-3.80448985e-15 75,16.7893219 75,37.5 C75,58.2106781 58.2106781,75 37.5,75 C16.7893219,75 2.53632657e-15,58.2106781 0,37.5 C-2.53632657e-15,16.7893219 16.7893219,3.80448985e-15 37.5,0 Z" id="Rectangle-7" fill="#E60012"></path>
                    <g id="Rectangle-7">
                        <use fill="#E60012" fill-rule="evenodd" xlink:href="#path-1"></use>
                        <rect stroke="#FFFFFF" stroke-width="3" x="5.5" y="5.5" width="64" height="64" rx="32"></rect>
                    </g>
                    <polygon id="Triangle" fill="#FFFFFF" transform="translate(41.500000, 38.000000) scale(-1, 1) translate(-41.500000, -38.000000) " points="31 38 52 20 52 56"></polygon>
                </g>
            </g>
        </g>
    </g>
</svg>