<svg id="02eebce4-af87-4edb-856e-29002ab00b05" data-name="Layer 1" xmlns="http://www.w3.org/2000/svg" viewBox="0 0 39.68 59.53"><defs><style>.\31 fd8e98c-564f-45b5-a5c9-b093ae916aee{fill:#231f20;}.\34 af01644-364d-43ee-8796-ccb486b40aa7{fill:#fff;}</style></defs><title>e</title><polygon points="39.69 0 39.11 0 0.58 0 0 0 0 0.64 0 58.89 0 59.53 0.58 59.53 39.11 59.53 39.69 59.53 39.69 58.89 39.69 0.64 39.69 0 39.69 0"/><path class="1fd8e98c-564f-45b5-a5c9-b093ae916aee" d="M38.53,0V58.25H0V0H38.53" transform="translate(0.58 0.64)"/><rect class="4af01644-364d-43ee-8796-ccb486b40aa7" x="2.52" y="2.71" width="34.38" height="9.66"/><rect class="4af01644-364d-43ee-8796-ccb486b40aa7" x="2.5" y="14.47" width="34.4" height="35.51"/><polygon class="4af01644-364d-43ee-8796-ccb486b40aa7" points="2.51 56.79 2.51 52.08 9.41 52.08 9.41 53.18 5.28 53.18 5.28 53.85 8.78 53.85 8.78 54.95 5.28 54.95 5.28 55.69 9.57 55.69 9.57 56.79 2.51 56.79"/><path class="4af01644-364d-43ee-8796-ccb486b40aa7" d="M14.86,52.81a0.52,0.52,0,0,0-.4-0.32,2.49,2.49,0,0,0-.72-0.09c-0.61,0-.88.1-0.88,0.28,0,0.7,4.87.26,4.87,2,0,1.09-1.64,1.62-4,1.62S10.08,55.55,10,54.7h2.66a0.67,0.67,0,0,0,.46.37,2.51,2.51,0,0,0,.79.12c0.69,0,1.15-.12,1.15-0.35,0-.71-4.87-0.22-4.87-2,0-1,1.55-1.5,3.67-1.5,2.35,0,3.42.67,3.62,1.49H14.86Z" transform="translate(0.58 0.64)"/><path class="4af01644-364d-43ee-8796-ccb486b40aa7" d="M21.89,53.48H23c0.86,0,1.32-.12,1.32-0.45s-0.47-.49-1.12-0.49H21.89v0.94Zm0,1v1.64H19.11V51.44h4c2.82,0,3.75.43,3.75,1.35,0,0.54-.43,1-1.42,1.16,0.89,0.18,1.43.29,1.43,1.24,0,0.61,0,.83.29,0.83v0.14H24.35a1.83,1.83,0,0,1-.14-0.82c0-.62-0.19-0.82-1.48-0.82H21.89Z" transform="translate(0.58 0.64)"/><path class="4af01644-364d-43ee-8796-ccb486b40aa7" d="M31.34,52.54v0.79h1.16c0.55,0,1-.14,1-0.41s-0.55-.38-1.13-0.38h-1Zm0,1.64v0.87h1.21c0.69,0,1.2-.08,1.2-0.43s-0.64-.44-1.53-0.44H31.34Zm-2.77,2V51.44h4c1.91,0,3.42.26,3.42,1.19a1.39,1.39,0,0,1-1.11,1c0.92,0.13,1.41.57,1.41,1.08,0,1.05-1.44,1.42-3.65,1.42H28.56Z" transform="translate(0.58 0.64)"/><path class="1fd8e98c-564f-45b5-a5c9-b093ae916aee" d="M33.38,46.35c0.32,0,.4-0.14.4-0.29s-0.08-.24-0.35-0.24H33v0.53h0.37ZM33,46.67v0.88H32.67V45.5h0.72a0.66,0.66,0,0,1,.82.57,0.49,0.49,0,0,1-.44.48h0a0.39,0.39,0,0,1,.37.41,2.79,2.79,0,0,0,.13.59H33.82a3.29,3.29,0,0,1-.07-0.37,0.72,0.72,0,0,0-.12-0.44,0.52,0.52,0,0,0-.32-0.08H33M35,46.56a1.55,1.55,0,0,0-3.1,0,1.55,1.55,0,0,0,3.1,0m-3.43,0a1.89,1.89,0,1,1,1.89,1.75,1.82,1.82,0,0,1-1.89-1.75" transform="translate(0.58 0.64)"/><polyline class="1fd8e98c-564f-45b5-a5c9-b093ae916aee" points="5.07 22.68 25.89 16.46 27.97 23.06 17.55 26.17 18.4 28.87 28.03 25.99 30.12 32.59 20.49 35.46 21.39 38.3 32.16 35.08 34.24 41.67 13.09 47.99 5.07 22.68"/><path class="1fd8e98c-564f-45b5-a5c9-b093ae916aee" d="M2.89,9.64V4.16h3V5H4V6.35H5.7V7.2H4v1.6H5.9V9.64h-3Z" transform="translate(0.58 0.64)"/><path class="1fd8e98c-564f-45b5-a5c9-b093ae916aee" d="M6.2,4.16H7.38l0.84,4h0l0.94-4h1.12L8.86,9.64H7.54Z" transform="translate(0.58 0.64)"/><path class="1fd8e98c-564f-45b5-a5c9-b093ae916aee" d="M10.8,9.64V4.16h3V5H11.93V6.35h1.68V7.2H11.93v1.6h1.88V9.64h-3Z" transform="translate(0.58 0.64)"/><path class="1fd8e98c-564f-45b5-a5c9-b093ae916aee" d="M15.65,9.64H14.52V4.16h2.09a1.21,1.21,0,0,1,.93.36,1.51,1.51,0,0,1,.34,1.07,1.64,1.64,0,0,1-.23.89,1.07,1.07,0,0,1-.77.46h0l0.25,0a0.86,0.86,0,0,1,.33.14,0.9,0.9,0,0,1,.28.31,1.16,1.16,0,0,1,.12.58c0,0.08,0,.21,0,0.36s0,0.32,0,.49,0,0.32,0,.46a1.16,1.16,0,0,0,.06.3H16.88a1.28,1.28,0,0,1-.12-0.52c0-.18,0-0.36,0-0.54s0-.32,0-0.46a1,1,0,0,0-.08-0.38,0.56,0.56,0,0,0-.24-0.26,1,1,0,0,0-.49-0.1H15.65V9.64Zm0-3.11h0.5a0.49,0.49,0,0,0,.28-0.08,0.55,0.55,0,0,0,.18-0.19A0.8,0.8,0,0,0,16.71,6a1.56,1.56,0,0,0,0-.27,0.81,0.81,0,0,0-.15-0.56A0.56,0.56,0,0,0,16.16,5h-0.5V6.53Z" transform="translate(0.58 0.64)"/><path class="1fd8e98c-564f-45b5-a5c9-b093ae916aee" d="M19.59,7.74L18.18,4.16h1.24l0.81,2.31,0.86-2.31h1.15L20.73,7.74V9.64H19.59V7.74Z" transform="translate(0.58 0.64)"/><path class="1fd8e98c-564f-45b5-a5c9-b093ae916aee" d="M24.57,9.73a2,2,0,0,1-1.08-.24,1.41,1.41,0,0,1-.56-0.64,2.68,2.68,0,0,1-.2-0.91c0-.34,0-0.69,0-1s0-.71,0-1.05a2.64,2.64,0,0,1,.2-0.9,1.4,1.4,0,0,1,.56-0.63,2.55,2.55,0,0,1,2.16,0,1.39,1.39,0,0,1,.55.63,2.66,2.66,0,0,1,.2.9c0,0.34,0,.69,0,1.05s0,0.71,0,1a2.7,2.7,0,0,1-.2.91,1.39,1.39,0,0,1-.55.64A2,2,0,0,1,24.57,9.73Zm0-.82A0.58,0.58,0,0,0,25,8.79a0.75,0.75,0,0,0,.22-0.36,2.75,2.75,0,0,0,.1-0.62c0-.26,0-0.56,0-0.91s0-.65,0-0.91a2.74,2.74,0,0,0-.1-0.62A0.75,0.75,0,0,0,25,5a0.68,0.68,0,0,0-.76,0,0.71,0.71,0,0,0-.22.36,2.69,2.69,0,0,0-.1.63q0,0.38,0,.91c0,0.35,0,.65,0,0.91a2.7,2.7,0,0,0,.1.62,0.72,0.72,0,0,0,.22.36A0.58,0.58,0,0,0,24.57,8.91Z" transform="translate(0.58 0.64)"/><path class="1fd8e98c-564f-45b5-a5c9-b093ae916aee" d="M27.34,9.64V4.16h1.53L30.31,8h0V4.16h1.06V9.64H29.89l-1.48-4h0v4H27.34Z" transform="translate(0.58 0.64)"/><path class="1fd8e98c-564f-45b5-a5c9-b093ae916aee" d="M32.33,9.64V4.16h3V5H33.46V6.35h1.68V7.2H33.46v1.6h1.88V9.64h-3Z" transform="translate(0.58 0.64)"/></svg>